<?xml version="1.0" encoding="UTF-8" standalone="no"?>
<svg
   xmlns:dc="http://purl.org/dc/elements/1.1/"
   xmlns:cc="http://creativecommons.org/ns#"
   xmlns:rdf="http://www.w3.org/1999/02/22-rdf-syntax-ns#"
   xmlns:svg="http://www.w3.org/2000/svg"
   xmlns="http://www.w3.org/2000/svg"
   viewBox="0 0 150 41"
   height="41"
   width="150"
   xml:space="preserve"
   version="1.1"
   id="svg2"><metadata
     id="metadata8"><rdf:RDF><cc:Work
         rdf:about=""><dc:format>image/svg+xml</dc:format><dc:type
           rdf:resource="http://purl.org/dc/dcmitype/StillImage" /><dc:title></dc:title></cc:Work></rdf:RDF></metadata><defs
     id="defs6"><clipPath
       id="clipPath16"
       clipPathUnits="userSpaceOnUse"><path
         id="path18"
         d="M 0,576 1440,576 1440,0 0,0 0,576 Z" /></clipPath></defs><g
     transform="matrix(1.25,0,0,-1.25,0,41)"
     id="g10"><g
       transform="matrix(0.31068096,0,0,0.31068096,-164.08297,-30.388049)"
       id="g12"><g
         clip-path="url(#clipPath16)"
         id="g14"><g
           transform="translate(606.9365,140.4902)"
           id="g20"><path
             id="path22"
             style="fill:#0ab9c1;fill-opacity:1;fill-rule:nonzero;stroke:none"
             d="m 0,0 c -9.92,-9.92 -26.064,-9.92 -35.986,0 -9.92,9.924 -9.92,26.066 0,35.988 9.922,9.92 26.066,9.92 35.986,0 C 9.922,26.066 9.922,9.924 0,0 m 12.055,-4.23 c 10.828,14.619 9.623,35.408 -3.619,48.652 -14.573,14.571 -38.284,14.571 -52.856,0 -14.57,-14.572 -14.57,-38.283 0,-52.855 13.244,-13.243 34.031,-14.448 48.652,-3.62 l 6.748,-6.75 7.823,7.824 -6.748,6.749 z" /></g><g
           transform="translate(625.6299,132.3936)"
           id="g24"><path
             id="path26"
             style="fill:#0ab9c1;fill-opacity:1;fill-rule:nonzero;stroke:none"
             d="m 0,0 -2.221,-2.222 3.627,-3.627 -6.031,-6.03 -3.627,3.626 -1.812,-1.814 L 8.891,-29.021 18.955,-18.954 0,0 Z" /></g><g
           transform="translate(548.0576,145.8965)"
           id="g28"><path
             id="path30"
             style="fill:#0ab9c1;fill-opacity:1;fill-rule:nonzero;stroke:none"
             d="m 0,0 c 0,-3.283 -2.633,-5.943 -5.879,-5.943 -3.248,0 -5.881,2.66 -5.881,5.943 l 0,11.889 c 0,3.283 2.633,5.943 5.881,5.943 3.246,0 5.879,-2.66 5.879,-5.943 L 0,0 Z" /></g><g
           transform="translate(548.0576,172.748)"
           id="g32"><path
             id="path34"
             style="fill:#fac731;fill-opacity:1;fill-rule:nonzero;stroke:none"
             d="m 0,0 c 0,-3.247 -2.633,-5.88 -5.879,-5.88 -3.248,0 -5.881,2.633 -5.881,5.88 0,3.248 2.633,5.879 5.881,5.879 C -2.633,5.879 0,3.248 0,0" /></g><g
           transform="translate(580.4268,167.249)"
           id="g36"><path
             id="path38"
             style="fill:#fac731;fill-opacity:1;fill-rule:nonzero;stroke:none"
             d="m 0,0 5.447,0 0,-6.167 5.949,0 0,6.167 5.469,0 0,-17.624 -5.469,0 0,7.128 -5.949,0 0,-7.128 -5.447,0 L 0,0 Z" /></g><g
           transform="translate(644.585,174.6387)"
           id="g40"><path
             id="path42"
             style="fill:#05b8c0;fill-opacity:1;fill-rule:nonzero;stroke:#0ab9c1;stroke-width:9.65617657;stroke-linecap:butt;stroke-linejoin:miter;stroke-miterlimit:4;stroke-dasharray:none;stroke-opacity:1"
             d="M 0,0 0,-32.404" /></g><g
           transform="translate(665.8779,171.9404)"
           id="g44"><path
             id="path46"
             style="fill:#0ab9c1;fill-opacity:1;fill-rule:nonzero;stroke:none"
             d="m 0,0 0,-8.333 c 0.713,0.823 1.408,1.475 2.088,1.955 0.678,0.481 1.43,0.84 2.252,1.08 0.824,0.239 1.709,0.36 2.654,0.36 1.428,0 2.694,-0.302 3.797,-0.907 1.104,-0.602 1.971,-1.48 2.604,-2.633 0.396,-0.672 0.664,-1.423 0.8,-2.252 0.139,-0.832 0.207,-1.787 0.207,-2.871 l 0,-10.759 c 0,-1.125 -0.257,-1.976 -0.771,-2.553 -0.516,-0.576 -1.197,-0.863 -2.047,-0.863 -1.854,0 -2.779,1.137 -2.779,3.416 l 0,9.484 c 0,1.796 -0.268,3.178 -0.801,4.146 -0.535,0.967 -1.551,1.45 -3.047,1.45 -1,0 -1.902,-0.285 -2.705,-0.853 C 1.449,-10.702 0.85,-11.481 0.451,-12.468 0.15,-13.306 0,-14.794 0,-16.933 l 0,-7.427 c 0,-1.112 -0.252,-1.959 -0.752,-2.541 -0.5,-0.584 -1.197,-0.875 -2.088,-0.875 -1.851,0 -2.777,1.137 -2.777,3.416 l 0,24.36 c 0,1.14 0.242,1.992 0.73,2.562 0.487,0.569 1.168,0.853 2.047,0.853 0.891,0 1.588,-0.288 2.088,-0.863 C -0.252,1.976 0,1.124 0,0" /></g><g
           transform="translate(701.2256,155.582)"
           id="g48"><path
             id="path50"
             style="fill:#0ab9c1;fill-opacity:1;fill-rule:nonzero;stroke:none"
             d="M 0,0 C 0,2.293 -0.504,4.074 -1.512,5.351 -2.52,6.625 -3.875,7.264 -5.576,7.264 -6.674,7.264 -7.641,6.979 -8.477,6.41 -9.314,5.842 -9.959,5.002 -10.41,3.891 -10.863,2.778 -11.09,1.482 -11.09,0 c 0,-1.467 0.223,-2.749 0.668,-3.847 0.447,-1.097 1.084,-1.937 1.914,-2.52 0.83,-0.584 1.807,-0.875 2.932,-0.875 1.701,0 3.056,0.64 4.064,1.924 C -0.504,-4.036 0,-2.263 0,0 M 5.639,0 C 5.639,-1.672 5.377,-3.217 4.855,-4.629 4.334,-6.041 3.58,-7.256 2.594,-8.27 c -0.989,-1.017 -2.168,-1.794 -3.539,-2.335 -1.373,-0.541 -2.916,-0.813 -4.631,-0.813 -1.701,0 -3.231,0.273 -4.588,0.822 -1.357,0.549 -2.533,1.334 -3.529,2.356 -0.995,1.022 -1.748,2.228 -2.262,3.621 -0.516,1.392 -0.772,2.933 -0.772,4.619 0,1.702 0.26,3.258 0.782,4.67 0.521,1.414 1.267,2.623 2.242,3.623 0.974,1 2.154,1.772 3.539,2.314 1.385,0.542 2.914,0.813 4.588,0.813 1.701,0 3.244,-0.274 4.631,-0.823 C 0.439,10.048 1.625,9.266 2.613,8.251 3.602,7.236 4.352,6.029 4.867,4.631 5.381,3.23 5.639,1.687 5.639,0" /></g><g
           transform="translate(729.374,151.5078)"
           id="g52"><path
             id="path54"
             style="fill:#0ab9c1;fill-opacity:1;fill-rule:nonzero;stroke:none"
             d="m 0,0 c 0,-1.55 -0.379,-2.877 -1.133,-3.98 -0.754,-1.104 -1.869,-1.942 -3.344,-2.51 -1.474,-0.57 -3.267,-0.854 -5.38,-0.854 -2.016,0 -3.745,0.309 -5.184,0.926 -1.441,0.617 -2.504,1.389 -3.189,2.313 -0.686,0.927 -1.03,1.856 -1.03,2.789 0,0.618 0.219,1.145 0.658,1.586 0.44,0.437 0.995,0.658 1.666,0.658 0.59,0 1.043,-0.145 1.36,-0.434 0.314,-0.288 0.617,-0.691 0.904,-1.213 0.576,-1.002 1.266,-1.748 2.068,-2.243 0.803,-0.493 1.897,-0.74 3.282,-0.74 1.125,0 2.047,0.249 2.767,0.751 0.721,0.5 1.08,1.072 1.08,1.717 0,0.988 -0.373,1.709 -1.121,2.162 -0.748,0.451 -1.978,0.884 -3.693,1.296 -1.934,0.479 -3.508,0.983 -4.723,1.51 -1.213,0.529 -2.183,1.227 -2.91,2.09 -0.728,0.863 -1.092,1.927 -1.092,3.19 0,1.125 0.336,2.187 1.01,3.188 0.672,1.001 1.662,1.801 2.973,2.398 1.31,0.596 2.89,0.894 4.742,0.894 1.455,0 2.76,-0.15 3.92,-0.452 1.158,-0.302 2.127,-0.707 2.9,-1.214 0.776,-0.508 1.365,-1.07 1.77,-1.687 0.404,-0.618 0.607,-1.222 0.607,-1.811 0,-0.644 -0.215,-1.173 -0.648,-1.586 -0.432,-0.41 -1.045,-0.615 -1.842,-0.615 -0.574,0 -1.066,0.164 -1.471,0.493 -0.404,0.329 -0.867,0.823 -1.388,1.482 -0.426,0.548 -0.926,0.988 -1.502,1.316 -0.577,0.33 -1.358,0.494 -2.346,0.494 -1.016,0 -1.859,-0.216 -2.531,-0.648 -0.672,-0.432 -1.008,-0.971 -1.008,-1.616 0,-0.589 0.248,-1.073 0.74,-1.451 0.494,-0.375 1.16,-0.688 1.996,-0.935 0.838,-0.247 1.99,-0.548 3.457,-0.905 1.742,-0.425 3.166,-0.932 4.27,-1.523 1.103,-0.59 1.941,-1.285 2.51,-2.088 C -0.285,1.945 0,1.031 0,0" /></g><g
           transform="translate(750.3193,155.6855)"
           id="g56"><path
             id="path58"
             style="fill:#0ab9c1;fill-opacity:1;fill-rule:nonzero;stroke:none"
             d="m 0,0 c 0,1.48 -0.227,2.754 -0.68,3.816 -0.453,1.063 -1.08,1.88 -1.883,2.45 -0.802,0.568 -1.689,0.853 -2.664,0.853 -1.55,0 -2.857,-0.611 -3.919,-1.831 -1.063,-1.221 -1.594,-3.017 -1.594,-5.392 0,-2.235 0.527,-3.972 1.584,-5.214 1.056,-1.243 2.365,-1.863 3.929,-1.863 0.934,0 1.797,0.271 2.592,0.814 0.797,0.541 1.434,1.353 1.914,2.437 C -0.24,-2.846 0,-1.537 0,0 m -11.008,8.168 0,-0.678 c 1.055,1.303 2.153,2.26 3.291,2.869 1.139,0.612 2.428,0.916 3.869,0.916 1.729,0 3.319,-0.445 4.774,-1.336 C 2.379,9.046 3.529,7.742 4.371,6.028 5.215,4.314 5.637,2.283 5.637,-0.062 5.637,-1.789 5.395,-3.377 4.906,-4.825 4.42,-6.271 3.752,-7.486 2.9,-8.467 c -0.849,-0.98 -1.855,-1.735 -3.013,-2.262 -1.16,-0.529 -2.405,-0.792 -3.735,-0.792 -1.605,0 -2.953,0.322 -4.043,0.965 -1.091,0.646 -2.13,1.591 -3.117,2.839 l 0,-8.435 c 0,-2.469 -0.898,-3.703 -2.695,-3.703 -1.057,0 -1.756,0.318 -2.1,0.957 -0.342,0.636 -0.513,1.567 -0.513,2.787 l 0,24.238 c 0,1.07 0.232,1.869 0.699,2.397 0.467,0.529 1.103,0.792 1.914,0.792 0.795,0 1.443,-0.27 1.943,-0.812 0.502,-0.542 0.752,-1.32 0.752,-2.336" /></g><g
           transform="translate(766.0791,163.8125)"
           id="g60"><path
             id="path62"
             style="fill:#0ab9c1;fill-opacity:1;fill-rule:nonzero;stroke:none"
             d="m 0,0 0,-16.232 c 0,-1.125 -0.266,-1.976 -0.801,-2.553 -0.535,-0.576 -1.215,-0.863 -2.037,-0.863 -0.824,0 -1.492,0.294 -2.006,0.882 -0.515,0.591 -0.771,1.434 -0.771,2.534 l 0,16.068 c 0,1.111 0.256,1.947 0.771,2.51 0.514,0.562 1.182,0.843 2.006,0.843 0.822,0 1.502,-0.281 2.037,-0.843 C -0.266,1.783 0,1.002 0,0 m -2.777,5.803 c -0.782,0 -1.45,0.24 -2.006,0.72 -0.555,0.48 -0.832,1.161 -0.832,2.038 0,0.794 0.283,1.449 0.853,1.963 0.569,0.515 1.231,0.772 1.985,0.772 0.726,0 1.373,-0.233 1.935,-0.699 C -0.281,10.131 0,9.451 0,8.561 0,7.695 -0.273,7.021 -0.822,6.533 -1.371,6.047 -2.023,5.803 -2.777,5.803" /></g><g
           transform="translate(772.1904,166.5078)"
           id="g64"><path
             id="path66"
             style="fill:#0ab9c1;fill-opacity:1;fill-rule:nonzero;stroke:none"
             d="m 0,0 0.617,0 0,3.375 C 0.617,4.28 0.643,4.99 0.689,5.504 0.738,6.02 0.871,6.461 1.092,6.832 1.311,7.216 1.627,7.528 2.037,7.768 2.449,8.008 2.908,8.129 3.416,8.129 4.129,8.129 4.773,7.86 5.35,7.325 5.734,6.969 5.979,6.533 6.08,6.02 6.184,5.504 6.234,4.773 6.234,3.828 L 6.234,0 8.293,0 c 0.795,0 1.402,-0.188 1.82,-0.566 0.418,-0.377 0.627,-0.86 0.627,-1.45 C 10.74,-2.77 10.443,-3.299 9.846,-3.6 9.25,-3.902 8.395,-4.053 7.285,-4.053 l -1.051,0 0,-10.329 c 0,-0.878 0.032,-1.554 0.094,-2.026 0.061,-0.473 0.227,-0.858 0.494,-1.153 0.266,-0.295 0.701,-0.442 1.305,-0.442 0.33,0 0.775,0.059 1.338,0.175 0.562,0.115 1.002,0.174 1.316,0.174 0.453,0 0.862,-0.182 1.225,-0.544 0.363,-0.364 0.545,-0.812 0.545,-1.349 0,-0.904 -0.492,-1.598 -1.481,-2.078 -0.988,-0.48 -2.408,-0.719 -4.259,-0.719 -1.756,0 -3.086,0.295 -3.991,0.883 -0.906,0.591 -1.5,1.408 -1.781,2.451 -0.281,1.041 -0.422,2.434 -0.422,4.176 l 0,10.781 -0.74,0 c -0.809,0 -1.426,0.193 -1.852,0.576 -0.425,0.383 -0.638,0.872 -0.638,1.461 0,0.59 0.222,1.073 0.67,1.45 C -1.498,-0.188 -0.85,0 0,0" /></g><g
           transform="translate(800.626,155.459)"
           id="g68"><path
             id="path70"
             style="fill:#0ab9c1;fill-opacity:1;fill-rule:nonzero;stroke:none"
             d="m 0,0 c -0.822,-0.301 -2.02,-0.621 -3.59,-0.957 -1.57,-0.334 -2.658,-0.582 -3.262,-0.74 -0.603,-0.158 -1.179,-0.467 -1.728,-0.926 -0.549,-0.461 -0.822,-1.101 -0.822,-1.924 0,-0.849 0.322,-1.574 0.966,-2.17 0.645,-0.597 1.489,-0.896 2.532,-0.896 1.111,0 2.136,0.244 3.076,0.73 0.939,0.487 1.629,1.115 2.068,1.883 C -0.254,-4.148 0,-2.75 0,-0.803 L 0,0 Z m 0.371,-8.127 c -1.357,-1.057 -2.672,-1.849 -3.939,-2.375 -1.27,-0.529 -2.694,-0.793 -4.27,-0.793 -1.441,0 -2.707,0.284 -3.797,0.854 -1.09,0.568 -1.931,1.339 -2.521,2.314 -0.59,0.973 -0.885,2.029 -0.885,3.169 0,1.536 0.488,2.846 1.461,3.931 0.975,1.083 2.312,1.809 4.014,2.179 0.355,0.082 1.24,0.268 2.654,0.555 C -5.5,1.996 -4.289,2.26 -3.281,2.5 -2.273,2.74 -1.18,3.031 0,3.374 c -0.068,1.482 -0.367,2.569 -0.895,3.262 -0.527,0.693 -1.623,1.039 -3.281,1.039 -1.428,0 -2.5,-0.198 -3.22,-0.597 -0.721,-0.398 -1.338,-0.995 -1.852,-1.789 -0.514,-0.796 -0.879,-1.321 -1.09,-1.574 -0.213,-0.254 -0.67,-0.381 -1.369,-0.381 -0.631,0 -1.176,0.203 -1.635,0.606 -0.461,0.406 -0.689,0.923 -0.689,1.554 0,0.987 0.349,1.947 1.049,2.88 0.699,0.934 1.789,1.702 3.271,2.306 1.481,0.603 3.326,0.904 5.535,0.904 2.469,0 4.41,-0.291 5.822,-0.874 C 3.059,10.127 4.057,9.205 4.641,7.943 5.223,6.68 5.516,5.007 5.516,2.922 5.516,1.605 5.512,0.486 5.504,-0.432 5.498,-1.352 5.486,-2.373 5.475,-3.498 c 0,-1.055 0.173,-2.156 0.523,-3.303 0.35,-1.144 0.525,-1.881 0.525,-2.211 0,-0.576 -0.271,-1.1 -0.812,-1.574 -0.543,-0.474 -1.156,-0.709 -1.842,-0.709 -0.576,0 -1.146,0.272 -1.709,0.813 -0.562,0.541 -1.158,1.326 -1.789,2.355" /></g><g
           transform="translate(811.8408,147.5801)"
           id="g72"><path
             id="path74"
             style="fill:#0ab9c1;fill-opacity:1;fill-rule:nonzero;stroke:none"
             d="m 0,0 0,24.36 c 0,1.124 0.25,1.976 0.75,2.552 0.502,0.575 1.176,0.863 2.027,0.863 0.85,0 1.535,-0.284 2.057,-0.853 C 5.355,26.353 5.617,25.5 5.617,24.36 L 5.617,0 c 0,-1.141 -0.265,-1.994 -0.793,-2.563 -0.527,-0.569 -1.211,-0.853 -2.047,-0.853 -0.822,0 -1.492,0.295 -2.006,0.883 C 0.256,-1.942 0,-1.1 0,0" /></g><g
           transform="translate(841.3467,151.5078)"
           id="g76"><path
             id="path78"
             style="fill:#0ab9c1;fill-opacity:1;fill-rule:nonzero;stroke:none"
             d="m 0,0 c 0,-1.55 -0.379,-2.877 -1.133,-3.98 -0.754,-1.104 -1.869,-1.942 -3.344,-2.51 -1.474,-0.57 -3.267,-0.854 -5.38,-0.854 -2.016,0 -3.745,0.309 -5.184,0.926 -1.441,0.617 -2.504,1.389 -3.189,2.313 -0.686,0.927 -1.03,1.856 -1.03,2.789 0,0.618 0.219,1.145 0.658,1.586 0.44,0.437 0.995,0.658 1.666,0.658 0.59,0 1.043,-0.145 1.36,-0.434 0.314,-0.288 0.617,-0.691 0.904,-1.213 0.576,-1.002 1.266,-1.748 2.068,-2.243 0.803,-0.493 1.897,-0.74 3.282,-0.74 1.125,0 2.047,0.249 2.767,0.751 0.721,0.5 1.08,1.072 1.08,1.717 0,0.988 -0.373,1.709 -1.121,2.162 -0.748,0.451 -1.978,0.884 -3.693,1.296 -1.934,0.479 -3.508,0.983 -4.723,1.51 -1.213,0.529 -2.183,1.227 -2.91,2.09 -0.728,0.863 -1.092,1.927 -1.092,3.19 0,1.125 0.336,2.187 1.01,3.188 0.672,1.001 1.662,1.801 2.973,2.398 1.31,0.596 2.89,0.894 4.742,0.894 1.455,0 2.76,-0.15 3.92,-0.452 1.158,-0.302 2.127,-0.707 2.9,-1.214 0.776,-0.508 1.365,-1.07 1.77,-1.687 0.404,-0.618 0.607,-1.222 0.607,-1.811 0,-0.644 -0.215,-1.173 -0.648,-1.586 -0.432,-0.41 -1.045,-0.615 -1.842,-0.615 -0.574,0 -1.066,0.164 -1.471,0.493 -0.404,0.329 -0.867,0.823 -1.388,1.482 -0.426,0.548 -0.926,0.988 -1.502,1.316 -0.577,0.33 -1.358,0.494 -2.346,0.494 -1.016,0 -1.859,-0.216 -2.531,-0.648 -0.672,-0.432 -1.008,-0.971 -1.008,-1.616 0,-0.589 0.248,-1.073 0.74,-1.451 0.494,-0.375 1.16,-0.688 1.996,-0.935 0.838,-0.247 1.99,-0.548 3.457,-0.905 1.742,-0.425 3.166,-0.932 4.27,-1.523 1.103,-0.59 1.941,-1.285 2.51,-2.088 C -0.285,1.945 0,1.031 0,0" /></g><g
           transform="translate(864.9385,169.6152)"
           id="g80"><path
             id="path82"
             style="fill:#fac731;fill-opacity:1;fill-rule:nonzero;stroke:none"
             d="M 0,0 C -0.783,0 -1.451,0.24 -2.006,0.721 -2.563,1.2 -2.84,1.881 -2.84,2.758 c 0,0.795 0.285,1.449 0.854,1.964 0.57,0.514 1.23,0.771 1.986,0.771 0.727,0 1.371,-0.233 1.934,-0.699 C 2.496,4.328 2.777,3.648 2.777,2.758 2.777,1.893 2.502,1.218 1.955,0.73 1.406,0.244 0.754,0 0,0" /></g><g
           transform="translate(867.7158,163.8125)"
           id="g84"><path
             id="path86"
             style="fill:#0ab9c1;fill-opacity:1;fill-rule:nonzero;stroke:none"
             d="m 0,0 0,-16.232 c 0,-1.125 -0.268,-1.976 -0.803,-2.553 -0.535,-0.576 -1.213,-0.863 -2.037,-0.863 -0.822,0 -1.492,0.294 -2.006,0.882 -0.513,0.591 -0.771,1.434 -0.771,2.534 l 0,16.068 c 0,1.111 0.258,1.947 0.771,2.51 0.514,0.562 1.184,0.843 2.006,0.843 0.824,0 1.502,-0.281 2.037,-0.843 C -0.268,1.783 0,1.002 0,0" /></g><g
           transform="translate(893.374,151.7559)"
           id="g88"><path
             id="path90"
             style="fill:#fac731;fill-opacity:1;fill-rule:nonzero;stroke:none"
             d="m 0,0 c 0.85,0.973 1.477,2.126 1.883,3.457 0.404,1.33 0.605,2.873 0.605,4.629 0,2.208 -0.355,4.121 -1.068,5.742 -0.715,1.616 -1.732,2.842 -3.057,3.672 -1.324,0.829 -2.842,1.244 -4.556,1.244 -1.221,0 -2.35,-0.23 -3.385,-0.689 -1.037,-0.459 -1.928,-1.128 -2.676,-2.006 -0.748,-0.878 -1.336,-1.999 -1.769,-3.363 -0.432,-1.366 -0.647,-2.9 -0.647,-4.6 0,-3.469 0.809,-6.142 2.428,-8.014 1.617,-1.871 3.662,-2.809 6.131,-2.809 1.015,0 2.056,0.213 3.127,0.638 -0.645,0.48 -1.45,0.96 -2.418,1.441 -0.967,0.48 -1.629,0.85 -1.985,1.111 -0.357,0.26 -0.535,0.631 -0.535,1.11 0,0.413 0.172,0.775 0.514,1.091 0.344,0.317 0.721,0.473 1.133,0.473 C -5.027,3.127 -2.936,2.084 0,0 m 4.793,-3.334 c 0.893,-0.604 1.865,-1.189 2.922,-1.758 1.056,-0.57 1.756,-1.022 2.099,-1.359 0.342,-0.336 0.514,-0.813 0.514,-1.43 0,-0.437 -0.203,-0.877 -0.607,-1.315 -0.405,-0.44 -0.895,-0.66 -1.471,-0.66 -0.467,0 -1.031,0.151 -1.697,0.454 -0.666,0.301 -1.448,0.74 -2.346,1.314 -0.898,0.578 -1.883,1.249 -2.953,2.018 -1.988,-1.014 -4.43,-1.522 -7.324,-1.522 -2.346,0 -4.448,0.373 -6.307,1.12 -1.859,0.748 -3.418,1.825 -4.682,3.232 -1.261,1.405 -2.211,3.076 -2.849,5.009 -0.637,1.934 -0.955,4.04 -0.955,6.317 0,2.318 0.332,4.445 0.996,6.379 0.666,1.933 1.629,3.58 2.892,4.937 1.262,1.359 2.797,2.399 4.608,3.118 1.81,0.72 3.869,1.08 6.174,1.08 3.127,0 5.812,-0.635 8.054,-1.903 2.243,-1.268 3.942,-3.074 5.092,-5.41 1.152,-2.34 1.729,-5.086 1.729,-8.242 0,-4.787 -1.295,-8.58 -3.889,-11.379" /></g><g
           transform="translate(621.2007,345.7134)"
           id="g92" /><g
           transform="translate(665.48,326.5317)"
           id="g96" /><g
           transform="translate(481.7324,358.5195)"
           id="g100" /><g
           transform="translate(481.7324,422.1206)"
           id="g104" /><g
           transform="translate(558.4077,409.0957)"
           id="g108" /><g
           transform="translate(710.3794,426.6021)"
           id="g112" /><g
           transform="translate(748.2988,404.5708)"
           id="g116" /><g
           transform="translate(783.6465,388.2134)"
           id="g120" /><g
           transform="translate(811.7949,384.1387)"
           id="g124" /><g
           transform="translate(832.7402,388.3149)"
           id="g128" /><g
           transform="translate(848.502,396.4429)"
           id="g132" /><g
           transform="translate(854.6133,399.1382)"
           id="g136" /><g
           transform="translate(883.0488,388.0894)"
           id="g140" /><g
           transform="translate(894.2617,380.2095)"
           id="g144" /><g
           transform="translate(923.7676,384.1387)"
           id="g148" /><g
           transform="translate(947.3594,402.2451)"
           id="g152" /><g
           transform="translate(950.1367,396.4429)"
           id="g156" /><g
           transform="translate(975.7949,384.3867)"
           id="g160" /></g></g></g></svg>