<?xml version="1.0" encoding="UTF-8" standalone="no"?>
<!-- Created with Inkscape (http://www.inkscape.org/) -->

<svg
   xmlns:dc="http://purl.org/dc/elements/1.1/"
   xmlns:cc="http://creativecommons.org/ns#"
   xmlns:rdf="http://www.w3.org/1999/02/22-rdf-syntax-ns#"
   xmlns:svg="http://www.w3.org/2000/svg"
   xmlns="http://www.w3.org/2000/svg"
   xmlns:sodipodi="http://sodipodi.sourceforge.net/DTD/sodipodi-0.dtd"
   xmlns:inkscape="http://www.inkscape.org/namespaces/inkscape"
   id="svg2"
   version="1.1"
   inkscape:version="0.91 r13725"
   xml:space="preserve"
   width="93"
   height="50"
   viewBox="0 0 92.999999 50.000001"
   sodipodi:docname="logo.svg"><metadata
     id="metadata8"><rdf:RDF><cc:Work
         rdf:about=""><dc:format>image/svg+xml</dc:format><dc:type
           rdf:resource="http://purl.org/dc/dcmitype/StillImage" /><dc:title></dc:title></cc:Work></rdf:RDF></metadata><defs
     id="defs6" /><sodipodi:namedview
     pagecolor="#ffffff"
     bordercolor="#666666"
     borderopacity="1"
     objecttolerance="10"
     gridtolerance="10"
     guidetolerance="10"
     inkscape:pageopacity="0"
     inkscape:pageshadow="2"
     inkscape:window-width="1301"
     inkscape:window-height="744"
     id="namedview4"
     showgrid="false"
     inkscape:zoom="3.1617317"
     inkscape:cx="80.276028"
     inkscape:cy="-38.900446"
     inkscape:window-x="65"
     inkscape:window-y="24"
     inkscape:window-maximized="1"
     inkscape:current-layer="g10" /><g
     id="g10"
     inkscape:groupmode="layer"
     inkscape:label="ink_ext_XXXXXX"
     transform="matrix(1.25,0,0,-1.25,0,49.999994)"><g
       id="g4322"
       inkscape:export-filename="/var/www/html/hiq-merchant/img/logo.png"
       inkscape:export-xdpi="90"
       inkscape:export-ydpi="90"
       transform="matrix(0.31747961,0,0,0.31747961,4.0229808,1.238993)"><path
         d="m 53.1289,39.5688 c -1.2031,-0.17 -2.2578,-0.7071 -3.1641,-1.6133 -1.1328,-1.1328 -1.6992,-2.4922 -1.6992,-4.0782 0,-0.8789 0.1985,-1.7128 0.5949,-2.5058 0.3399,0.3398 0.8563,0.8555 1.5504,1.5508 0.6938,0.6933 1.4297,1.4297 2.2082,2.209 0.7793,0.7773 1.5293,1.5214 2.252,2.2285 0.7219,0.707 1.2805,1.2597 1.6777,1.6562 -1.0769,0.5391 -2.2168,0.7227 -3.4199,0.5528"
         style="fill:#49c2b7;fill-opacity:1;fill-rule:nonzero;stroke:none"
         id="path50"
         inkscape:connector-curvature="0" /><path
         d="m 82.4578,26.2738 c 0,-1.33 -0.2488,-2.5683 -0.7437,-3.7168 -0.4953,-1.1465 -1.175,-2.1582 -2.0383,-3.0371 -0.8645,-0.8769 -1.8692,-1.5625 -3.0156,-2.0586 -1.1473,-0.4961 -2.386,-0.7441 -3.7168,-0.7441 l -1.9114,0 0,3.7812 1.9114,0 c 0.7921,0 1.5363,0.1485 2.2296,0.4454 0.6942,0.2968 1.3028,0.7089 1.827,1.2324 0.5234,0.5234 0.9336,1.1386 1.2313,1.8476 0.2968,0.7071 0.4464,1.4571 0.4464,2.25 l 0,0.043 C 77.8848,25.6938 77,25.2133 76.0227,24.8734 c -0.9766,-0.3398 -2.0032,-0.5097 -3.0793,-0.5097 -1.3028,0 -2.534,0.2461 -3.6954,0.7422 -1.1613,0.4961 -2.1804,1.1812 -3.0585,2.0601 -0.8782,0.8774 -1.5645,1.8969 -2.0594,3.0586 -0.4961,1.1606 -0.7434,2.393 -0.7434,3.6957 l 0,9.5137 3.7805,0 0,-9.5137 c 0,-0.793 0.148,-1.5449 0.4449,-2.2519 0.2981,-0.7071 0.7082,-1.3243 1.2324,-1.8481 0.5239,-0.523 1.1399,-0.9332 1.8481,-1.232 0.7066,-0.2973 1.4578,-0.4453 2.2508,-0.4453 0.7921,0 1.5363,0.148 2.2296,0.4453 0.6942,0.2988 1.3028,0.709 1.827,1.232 0.5234,0.5238 0.9336,1.141 1.2313,1.8481 0.2968,0.707 0.4464,1.4589 0.4464,2.2519 l 0,9.5137 3.7801,0 0,-17.1602 z m -27.5015,1.8907 c 1.2031,0.1835 2.2578,0.7285 3.1636,1.6347 l 1.3164,1.3164 2.6758,-2.6758 -1.316,-1.3164 c -0.9066,-0.9062 -1.9398,-1.5996 -3.1008,-2.08 -1.1609,-0.4825 -2.3789,-0.7231 -3.6531,-0.7231 -1.2734,0 -2.4914,0.2406 -3.6527,0.7231 -1.161,0.4804 -2.1942,1.1738 -3.1004,2.08 -0.9344,0.9356 -1.6289,1.9903 -2.0813,3.1637 -0.4539,1.1762 -0.6797,2.3715 -0.6797,3.5902 0,1.2168 0.2258,2.4063 0.6797,3.568 0.4524,1.1606 1.1469,2.2094 2.0813,3.143 0.9343,0.9336 1.989,1.6347 3.164,2.1015 1.1746,0.4688 2.3711,0.7012 3.5891,0.7012 1.2176,0 2.4141,-0.2324 3.5894,-0.7012 1.175,-0.4668 2.2297,-1.1679 3.1645,-2.1015 l 1.316,-1.3164 -10.5762,-10.5766 c 1.0762,-0.5387 2.2161,-0.7144 3.4204,-0.5308 z m -11.5747,-3.7598 -3.78,0 0,9.5566 c 0,0.793 -0.1496,1.5371 -0.4461,2.2305 -0.2981,0.6934 -0.7082,1.3027 -1.2317,1.8262 -0.5246,0.523 -1.1406,0.9355 -1.8476,1.2324 -0.709,0.2969 -1.459,0.4449 -2.252,0.4449 -0.7929,0 -1.5359,-0.148 -2.2297,-0.4449 C 30.9004,38.9535 30.2922,38.541 29.7688,38.018 29.2441,37.4945 28.834,36.8852 28.5359,36.1918 28.2395,35.4984 28.0906,34.7543 28.0906,33.9613 l 0,-9.5566 -3.7801,0 0,26.7168 3.7801,0 0,-9.5996 c 0.7922,0.623 1.6782,1.1054 2.6543,1.4453 0.977,0.3398 2.0031,0.5098 3.0793,0.5098 1.3313,0 2.5703,-0.2485 3.7168,-0.7442 1.1465,-0.4961 2.1594,-1.1758 3.0371,-2.039 0.877,-0.8633 1.5645,-1.8692 2.0598,-3.0157 0.4949,-1.1465 0.7437,-2.3847 0.7437,-3.7168 l 0,-9.5566 z m 62.0934,51.8262 c -0.571,-1.011 -2.002,-1.6274 -3.98,-1.6274 l -17.1559,0 c -0.47,0 -0.8664,-0.3949 -0.8664,-0.8601 l 0,-17.1606 c 0,-2.3492 -1.9082,-4.2543 -4.2508,-4.2543 l -9.8684,0 c -2.3437,0 -4.2488,1.9051 -4.2488,4.2543 l -0.0063,17.1606 c 0,0.3089 -0.1582,0.5074 -0.2539,0.6046 -0.0945,0.0989 -0.2976,0.2555 -0.605,0.2555 l -17.168,0 c -2.3449,0 -4.25,1.907 -4.25,4.2508 l 0,9.6703 c 0,0 0,2.6211 0,2.6586 0,1.7945 1.5055,1.7945 4.25,1.7945 l 17.168,0 c 0.4617,0 0.8652,0.3942 0.8652,0.8618 l -0.0063,17.1625 c 0,0.588 0.1204,1.149 0.3371,1.659 C 61.748,113.456 57.9246,113.885 54,113.885 24.177,113.885 0,89.7082 0,59.8852 0,30.0609 24.177,5.88516 54,5.88516 c 29.823,0 54,24.17574 54,54.00004 0,5.6984 -0.889,11.1882 -2.525,16.3457"
         style="fill:#49c2b7;fill-opacity:1;fill-rule:nonzero;stroke:none"
         id="path52"
         inkscape:connector-curvature="0" /><path
         d="m 129.236,46.1176 c 1.373,0 2.653,-0.2539 3.837,-0.7656 1.185,-0.5118 2.229,-1.2149 3.136,-2.1055 0.906,-0.893 1.615,-1.9297 2.126,-3.1137 0.513,-1.1851 0.769,-2.4644 0.769,-3.8375 l 0,-9.8672 -3.903,0 0,9.8672 c 0,0.8184 -0.153,1.586 -0.462,2.3027 -0.305,0.7168 -0.729,1.3438 -1.27,1.8848 -0.543,0.541 -1.179,0.9649 -1.908,1.2715 -0.732,0.3086 -1.507,0.4609 -2.325,0.4609 -0.819,0 -1.587,-0.1523 -2.303,-0.4609 -0.716,-0.3066 -1.344,-0.7305 -1.885,-1.2715 -0.541,-0.541 -0.965,-1.168 -1.271,-1.8848 -0.307,-0.7167 -0.462,-1.4843 -0.462,-2.3027 l 0,-9.8672 -3.902,0 0,9.8672 c 0,0.8184 -0.153,1.586 -0.46,2.3027 -0.307,0.7168 -0.732,1.3438 -1.272,1.8848 -0.541,0.541 -1.178,0.9649 -1.91,1.2715 -0.73,0.3086 -1.504,0.4609 -2.322,0.4609 -0.819,0 -1.587,-0.1523 -2.303,-0.4609 -0.716,-0.3066 -1.345,-0.7305 -1.885,-1.2715 -0.542,-0.541 -0.965,-1.168 -1.273,-1.8848 -0.307,-0.7167 -0.46,-1.4843 -0.46,-2.3027 l 0,-9.8672 -3.904,0 0,9.8672 c 0,1.3731 0.257,2.6524 0.769,3.8375 0.51,1.184 1.211,2.2207 2.104,3.1137 0.893,0.8906 1.936,1.5937 3.136,2.1055 1.199,0.5117 2.471,0.7656 3.816,0.7656 1.636,0 3.136,-0.3574 4.494,-1.0742 1.359,-0.7149 2.494,-1.6875 3.4,-2.9161 0.904,1.2286 2.045,2.2012 3.419,2.9161 1.375,0.7168 2.867,1.0742 4.474,1.0742"
         style="fill:#2c2a29;fill-opacity:1;fill-rule:nonzero;stroke:none"
         id="path54"
         inkscape:connector-curvature="0" /><path
         d="m 146.164,40.4184 c -1.17,-1.17 -1.754,-2.5743 -1.754,-4.211 0,-0.9062 0.204,-1.7695 0.613,-2.5879 0.352,0.3516 0.885,0.8828 1.601,1.5996 0.717,0.7168 1.477,1.4762 2.281,2.2813 0.805,0.8047 1.579,1.5723 2.325,2.3027 0.745,0.7305 1.323,1.3004 1.732,1.711 -1.111,0.5547 -2.289,0.7461 -3.529,0.5703 -1.245,-0.1758 -2.334,-0.7309 -3.269,-1.666 z m 9.779,-7.0625 2.764,-2.7618 -1.36,-1.3593 c -0.935,-0.9356 -2.003,-1.6524 -3.201,-2.1485 -1.2,-0.498 -2.457,-0.7461 -3.771,-0.7461 -1.316,0 -2.573,0.2481 -3.773,0.7461 -1.198,0.4961 -2.267,1.2129 -3.201,2.1485 -0.964,0.9648 -1.681,2.0523 -2.147,3.2675 -0.47,1.211 -0.703,2.4473 -0.703,3.7051 0,1.2578 0.233,2.4844 0.703,3.6836 0.466,1.1992 1.183,2.2793 2.147,3.2461 0.965,0.9649 2.053,1.6875 3.268,2.1699 1.212,0.4825 2.448,0.7246 3.706,0.7246 1.257,0 2.491,-0.2421 3.705,-0.7246 1.213,-0.4824 2.301,-1.205 3.267,-2.1699 l 1.36,-1.3594 -10.92,-10.9218 c 1.109,-0.5547 2.286,-0.7364 3.531,-0.5469 1.243,0.1894 2.33,0.7519 3.266,1.6894 l 1.359,1.3575"
         style="fill:#2c2a29;fill-opacity:1;fill-rule:nonzero;stroke:none"
         id="path56"
         inkscape:connector-curvature="0" /><path
         d="m 169.933,30.3305 c 0.819,0 1.587,0.1543 2.303,0.4605 0.716,0.307 1.344,0.7309 1.887,1.2719 0.54,0.5406 0.964,1.1777 1.27,1.9082 0.308,0.7305 0.461,1.5059 0.461,2.3242 l 0,5.9199 -5.921,0 c -0.818,0 -1.594,-0.1523 -2.324,-0.4609 -0.732,-0.3066 -1.367,-0.7305 -1.907,-1.2715 -0.541,-0.541 -0.966,-1.168 -1.273,-1.8848 -0.305,-0.7167 -0.459,-1.4843 -0.459,-2.3027 0,-0.8183 0.154,-1.5937 0.459,-2.3242 0.307,-0.7305 0.732,-1.3676 1.273,-1.9082 0.54,-0.541 1.175,-0.9649 1.907,-1.2719 0.73,-0.3062 1.506,-0.4605 2.324,-0.4605 z m 9.825,23.6816 0,-17.7168 c 0,-1.3457 -0.257,-2.6172 -0.769,-3.8168 -0.51,-1.1988 -1.213,-2.25 -2.104,-3.1558 -0.892,-0.9082 -1.938,-1.6153 -3.137,-2.1274 -1.197,-0.5113 -2.471,-0.7672 -3.815,-0.7672 -1.345,0 -2.616,0.2559 -3.815,0.7672 -1.198,0.5121 -2.252,1.2192 -3.156,2.1274 -0.907,0.9058 -1.617,1.957 -2.128,3.1558 -0.512,1.1996 -0.768,2.4711 -0.768,3.8168 0,1.3731 0.256,2.6524 0.768,3.8375 0.511,1.184 1.221,2.2207 2.128,3.1137 0.904,0.8906 1.958,1.5937 3.156,2.1055 1.199,0.5117 2.47,0.7656 3.815,0.7656 l 5.921,0 0,7.8945 3.904,0"
         style="fill:#2c2a29;fill-opacity:1;fill-rule:nonzero;stroke:none"
         id="path58"
         inkscape:connector-curvature="0" /><path
         d="m 210.639,44.1586 c 2.172,-3.2949 0.87,-9.0313 -3.872,-17.0449 l -1.461,0.8648 c 5.45,9.2211 5.137,13.375 3.914,15.2387 -1.628,2.4805 -5.599,2.0113 -5.636,2.0058 l -0.219,1.6875 c 0.205,0.0274 5.053,0.6153 7.274,-2.7519"
         style="fill:#49c2b7;fill-opacity:1;fill-rule:nonzero;stroke:none"
         id="path60"
         inkscape:connector-curvature="0" /><path
         d="m 182.19,44.1586 c -2.171,-3.2949 -0.871,-9.0313 3.87,-17.0449 l 1.464,0.8648 c -5.452,9.2211 -5.137,13.375 -3.916,15.2387 1.627,2.4805 5.598,2.0113 5.638,2.0058 l 0.218,1.6875 c -0.205,0.0274 -5.052,0.6153 -7.274,-2.7519"
         style="fill:#49c2b7;fill-opacity:1;fill-rule:nonzero;stroke:none"
         id="path62"
         inkscape:connector-curvature="0" /><path
         d="m 207.587,28.6684 c 0.204,-0.0649 0.311,-0.2793 0.237,-0.4805 0,0 -4.53,-10.3711 -11.039,-11.0684 -4.168,-0.4472 -11.237,10.3203 -11.237,10.3203 -0.126,0.1739 -0.075,0.4024 0.111,0.5098 l 1.541,0.8731 c 0.184,0.1054 0.437,0.0488 0.559,-0.1289 0,0 5.732,-9.3594 8.753,-9.0352 4.024,0.4277 8.848,9.3027 8.848,9.3027 0.091,0.1953 0.33,0.3008 0.536,0.2383 l 1.691,-0.5312"
         style="fill:#211c1d;fill-opacity:1;fill-rule:nonzero;stroke:none"
         id="path64"
         inkscape:connector-curvature="0" /><path
         d="m 207.587,28.6684 c 0.204,-0.0649 0.311,-0.2793 0.237,-0.4805 0,0 -4.53,-10.3711 -11.039,-11.0684 -4.168,-0.4472 -11.237,10.3203 -11.237,10.3203 -0.126,0.1739 -0.075,0.4024 0.111,0.5098 l 1.541,0.8731 c 0.184,0.1054 0.437,0.0488 0.559,-0.1289 0,0 5.732,-9.3594 8.753,-9.0352 4.024,0.4277 8.848,9.3027 8.848,9.3027 0.091,0.1953 0.33,0.3008 0.536,0.2383 l 1.691,-0.5312"
         style="fill:#2c2a29;fill-opacity:1;fill-rule:nonzero;stroke:none"
         id="path66"
         inkscape:connector-curvature="0" /><path
         d="M 195.385,4.26602 C 183.439,-7.68086 178.911,9.23906 178.461,9.47305 l 0.785,1.50975 c 2.795,-1.44999 3.667,-14.84569 15.108,-5.36561 1.821,1.50976 2.313,4.51801 1.294,9.14061 l 1.664,0.3656 c 1.17,-5.32652 0.254,-8.67652 -1.927,-10.85738"
         style="fill:#2c2a29;fill-opacity:1;fill-rule:nonzero;stroke:none"
         id="path68"
         inkscape:connector-curvature="0" /><path
         d="m 180.47,10.3852 -2.286,-1.46528 -0.916,1.43398 2.284,1.4652 0.918,-1.4339"
         style="fill:#2c2a29;fill-opacity:1;fill-rule:nonzero;stroke:none"
         id="path70"
         inkscape:connector-curvature="0" /><path
         d="m 175.711,10.9828 c -2.554,0 -4.63,2.0762 -4.63,4.6289 0,2.5543 2.076,4.6309 4.63,4.6309 2.552,0 4.631,-2.0766 4.631,-4.6309 0,-2.5527 -2.079,-4.6289 -4.631,-4.6289 z m 0,10.5606 c -3.271,0 -5.93,-2.6621 -5.93,-5.9317 0,-3.2695 2.659,-5.92772 5.93,-5.92772 3.27,0 5.929,2.65822 5.929,5.92772 0,3.2696 -2.659,5.9317 -5.929,5.9317"
         style="fill:#2c2a29;fill-opacity:1;fill-rule:nonzero;stroke:none"
         id="path72"
         inkscape:connector-curvature="0" /><path
         d="m 175.711,12.2988 c -1.828,0 -3.314,1.4864 -3.314,3.3129 0,1.8262 1.486,3.3125 3.314,3.3125 1.828,0 3.312,-1.4863 3.312,-3.3125 0,-1.8265 -1.484,-3.3129 -3.312,-3.3129 z m 0,8.0239 c -2.596,0 -4.711,-2.1153 -4.711,-4.711 0,-2.5957 2.115,-4.7086 4.711,-4.7086 2.594,0 4.708,2.1129 4.708,4.7086 0,2.5957 -2.114,4.711 -4.708,4.711"
         style="fill:#49c2b7;fill-opacity:1;fill-rule:nonzero;stroke:none"
         id="path74"
         inkscape:connector-curvature="0" /><path
         d="m 175.711,13.0629 c -1.405,0 -2.551,1.1426 -2.551,2.5488 0,1.4063 1.146,2.5504 2.551,2.5504 1.405,0 2.55,-1.1441 2.55,-2.5504 0,-1.4062 -1.145,-2.5488 -2.55,-2.5488 z m 0,6.7656 c -2.325,0 -4.217,-1.8906 -4.217,-4.2168 0,-2.3246 1.892,-4.2148 4.217,-4.2148 2.326,0 4.217,1.8902 4.217,4.2148 0,2.3262 -1.891,4.2168 -4.217,4.2168"
         style="fill:#2c2a29;fill-opacity:1;fill-rule:nonzero;stroke:none"
         id="path76"
         inkscape:connector-curvature="0" /><path
         d="m 173.152,15.6352 c 0,-1.4122 1.145,-2.5614 2.559,-2.5614 1.414,0 2.56,1.1492 2.56,2.5614 0,1.416 -1.146,2.5625 -2.56,2.5625 -1.414,0 -2.559,-1.1465 -2.559,-2.5625"
         style="fill:#ffffff;fill-opacity:1;fill-rule:nonzero;stroke:none"
         id="path78"
         inkscape:connector-curvature="0" /><path
         d="m 195.504,18.0078 c -0.753,0 -1.229,-0.5992 -1.047,-1.3355 0,0 0.703,-2.8653 1.972,-2.8653 1.267,0 1.969,2.8653 1.969,2.8653 0.181,0.7363 -0.291,1.3355 -1.047,1.3355 l -1.847,0"
         style="fill:#2c2a29;fill-opacity:1;fill-rule:nonzero;stroke:none"
         id="path80"
         inkscape:connector-curvature="0" /><path
         d="m 199.904,45.2133 c 0,-0.7578 0.601,-1.2285 1.335,-1.0488 0,0 2.865,0.7031 2.865,1.9707 0,1.2695 -2.865,1.9726 -2.865,1.9726 -0.734,0.1793 -1.335,-0.293 -1.335,-1.0488 l 0,-1.8457"
         style="fill:#2c2a29;fill-opacity:1;fill-rule:nonzero;stroke:none"
         id="path82"
         inkscape:connector-curvature="0" /><path
         d="m 192.944,45.3324 c 0,-0.7578 -0.601,-1.2289 -1.336,-1.0488 0,0 -2.864,0.7012 -2.864,1.9707 0,1.2676 2.864,1.9703 2.864,1.9703 0.735,0.1801 1.336,-0.2926 1.336,-1.0484 l 0,-1.8438"
         style="fill:#2c2a29;fill-opacity:1;fill-rule:nonzero;stroke:none"
         id="path84"
         inkscape:connector-curvature="0" /></g></g></svg>