<?xml version="1.0" encoding="UTF-8" standalone="no"?>
<!-- Created with Inkscape (http://www.inkscape.org/) -->

<svg
   xmlns:dc="http://purl.org/dc/elements/1.1/"
   xmlns:cc="http://creativecommons.org/ns#"
   xmlns:rdf="http://www.w3.org/1999/02/22-rdf-syntax-ns#"
   xmlns:svg="http://www.w3.org/2000/svg"
   xmlns="http://www.w3.org/2000/svg"
   xmlns:sodipodi="http://sodipodi.sourceforge.net/DTD/sodipodi-0.dtd"
   xmlns:inkscape="http://www.inkscape.org/namespaces/inkscape"
   id="svg2"
   version="1.1"
   inkscape:version="0.91 r13725"
   xml:space="preserve"
   width="53"
   height="53"
   viewBox="0 0 53 53.000001"
   sodipodi:docname="logos.svg"><metadata
     id="metadata8"><rdf:RDF><cc:Work
         rdf:about=""><dc:format>image/svg+xml</dc:format><dc:type
           rdf:resource="http://purl.org/dc/dcmitype/StillImage" /><dc:title></dc:title></cc:Work></rdf:RDF></metadata><defs
     id="defs6" /><sodipodi:namedview
     pagecolor="#ffffff"
     bordercolor="#666666"
     borderopacity="1"
     objecttolerance="10"
     gridtolerance="10"
     guidetolerance="10"
     inkscape:pageopacity="0"
     inkscape:pageshadow="2"
     inkscape:window-width="1301"
     inkscape:window-height="744"
     id="namedview4"
     showgrid="false"
     inkscape:zoom="3.1526905"
     inkscape:cx="103.22832"
     inkscape:cy="72.548919"
     inkscape:window-x="65"
     inkscape:window-y="24"
     inkscape:window-maximized="1"
     inkscape:current-layer="g10" /><g
     id="g10"
     inkscape:groupmode="layer"
     inkscape:label="ink_ext_XXXXXX"
     transform="matrix(1.25,0,0,-1.25,0,52.999994)"><g
       id="g4262"
       transform="matrix(0.33854969,0,0,0.33854969,-97.472518,5.5854848)"><g
         id="g4259"><path
           inkscape:connector-curvature="0"
           id="path14"
           style="fill:#49c2b7;fill-opacity:1;fill-rule:nonzero;stroke:none"
           d="m 348.453,50.9906 c 0,-1.0273 -0.191,-1.9843 -0.574,-2.8691 -0.382,-0.8848 -0.906,-1.666 -1.573,-2.3438 -0.666,-0.6757 -1.442,-1.2074 -2.327,-1.5898 -0.885,-0.3809 -1.841,-0.5723 -2.868,-0.5723 l -1.475,0 0,2.916 1.475,0 c 0.612,0 1.185,0.1153 1.721,0.3438 0.535,0.2305 1.005,0.5469 1.409,0.9512 0.405,0.4043 0.721,0.8808 0.95,1.4257 0.23,0.5469 0.345,1.125 0.345,1.7383 l 0,0.0313 c -0.612,-0.4809 -1.295,-0.8516 -2.049,-1.1133 -0.754,-0.2617 -1.546,-0.3945 -2.376,-0.3945 -1.006,0 -1.956,0.1914 -2.851,0.5742 -0.897,0.3828 -1.684,0.9121 -2.361,1.5898 -0.677,0.6778 -1.207,1.4637 -1.589,2.359 -0.382,0.8969 -0.574,1.8469 -0.574,2.8524 l 0,7.3418 2.917,0 0,-7.3418 c 0,-0.6118 0.116,-1.1911 0.345,-1.7368 0.229,-0.5468 0.546,-1.0214 0.95,-1.4257 0.405,-0.4043 0.879,-0.7207 1.426,-0.9512 0.546,-0.2285 1.125,-0.3438 1.737,-0.3438 0.612,0 1.185,0.1153 1.721,0.3438 0.535,0.2305 1.005,0.5469 1.409,0.9512 0.405,0.4043 0.721,0.8789 0.95,1.4257 0.23,0.5457 0.345,1.125 0.345,1.7368 l 0,7.3418 2.917,0 0,-13.2407 z m -21.223,1.4571 c 0.929,0.1425 1.743,0.5625 2.443,1.2625 l 1.015,1.0168 2.066,-2.0665 -1.017,-1.0156 c -0.699,-0.6996 -1.497,-1.2344 -2.392,-1.6054 -0.897,-0.3711 -1.835,-0.5567 -2.819,-0.5567 -0.983,0 -1.923,0.1856 -2.819,0.5567 -0.895,0.371 -1.693,0.9058 -2.393,1.6054 -0.72,0.7207 -1.256,1.5352 -1.605,2.4422 -0.351,0.9067 -0.524,1.8301 -0.524,2.7695 0,0.9395 0.173,1.8571 0.524,2.7536 0.349,0.8953 0.885,1.7039 1.605,2.4253 0.722,0.7211 1.536,1.2618 2.443,1.6223 0.906,0.3606 1.829,0.5406 2.769,0.5406 0.939,0 1.863,-0.18 2.77,-0.5406 0.906,-0.3605 1.721,-0.9012 2.441,-1.6223 l 1.017,-1.0164 -8.162,-8.1613 c 0.831,-0.4164 1.71,-0.5527 2.638,-0.4101 z m -8.931,-2.9004 -2.917,0 0,7.375 c 0,0.6117 -0.114,1.1847 -0.344,1.7211 -0.229,0.5351 -0.547,1.0043 -0.951,1.4089 -0.404,0.404 -0.879,0.7215 -1.426,0.9508 -0.546,0.2289 -1.125,0.3438 -1.736,0.3438 -0.612,0 -1.186,-0.1149 -1.721,-0.3438 -0.536,-0.2293 -1.006,-0.5468 -1.41,-0.9508 -0.404,-0.4046 -0.721,-0.8738 -0.95,-1.4089 -0.23,-0.5364 -0.344,-1.1094 -0.344,-1.7211 l 0,-7.375 -2.917,0 0,20.6164 2.917,0 0,-7.4071 c 0.611,0.4805 1.294,0.852 2.048,1.1141 0.754,0.2621 1.546,0.3938 2.377,0.3938 1.026,0 1.982,-0.1918 2.867,-0.5739 0.886,-0.3828 1.666,-0.907 2.344,-1.573 0.677,-0.6672 1.207,-1.4426 1.59,-2.3274 0.381,-0.8847 0.573,-1.8414 0.573,-2.8679 l 0,-7.375 z m 75.842,20.8109 c -0.571,-1.0109 -2.002,-1.6269 -3.98,-1.6269 l -17.156,0 c -0.47,0 -0.866,-0.395 -0.866,-0.8606 l 0,-17.1613 c 0,-2.3477 -1.909,-4.2539 -4.251,-4.2539 l -9.868,0 c -2.344,0 -4.249,1.9062 -4.249,4.2539 l -0.006,17.1613 c 0,0.3094 -0.159,0.5074 -0.254,0.6047 -0.095,0.0992 -0.298,0.2559 -0.606,0.2559 l -17.168,0 c -2.344,0 -4.25,1.9066 -4.25,4.2503 l 0,9.6704 c 0,0 0,2.621 0,2.6589 0,1.7942 1.506,1.7942 4.25,1.7942 l 17.168,0 c 0.462,0 0.866,0.3941 0.866,0.8621 l -0.006,17.1628 c 0,0.588 0.12,1.148 0.337,1.658 -3.688,0.795 -7.511,1.225 -11.436,1.225 -29.823,0 -54,-24.1775 -54,-54.0009 0,-29.8242 24.177,-53.9999906 54,-53.9999906 29.823,0 54,24.1757906 54,53.9999906 0,5.6992 -0.889,11.1887 -2.525,16.3461" /></g><path
         d="m 325.821,61.2488 c -0.928,-0.1308 -1.743,-0.5465 -2.441,-1.2457 -0.875,-0.8742 -1.312,-1.9226 -1.312,-3.1465 0,-0.6773 0.153,-1.3222 0.459,-1.9336 0.262,0.2622 0.661,0.6606 1.197,1.1965 0.535,0.5352 1.103,1.1028 1.704,1.7039 0.6,0.6012 1.18,1.1743 1.737,1.7211 0.558,0.5461 0.988,0.9719 1.295,1.2782 -0.831,0.4148 -1.71,0.5574 -2.639,0.4261"
         style="fill:#49c2b7;fill-opacity:1;fill-rule:nonzero;stroke:none"
         id="path16"
         inkscape:connector-curvature="0" /><path
         d="m 324.271,36.1801 c 1.034,0 1.997,-0.1934 2.888,-0.5781 0.893,-0.3868 1.679,-0.9141 2.362,-1.586 0.682,-0.6719 1.216,-1.4531 1.601,-2.3437 0.386,-0.8926 0.578,-1.8555 0.578,-2.8907 l 0,-7.4296 -2.938,0 0,7.4296 c 0,0.6172 -0.116,1.1954 -0.348,1.7344 -0.23,0.5391 -0.55,1.0117 -0.957,1.4199 -0.408,0.4063 -0.887,0.7262 -1.436,0.9571 -0.551,0.2324 -1.135,0.3476 -1.75,0.3476 -0.618,0 -1.196,-0.1152 -1.735,-0.3476 -0.539,-0.2309 -1.013,-0.5508 -1.42,-0.9571 -0.407,-0.4082 -0.726,-0.8808 -0.957,-1.4199 -0.231,-0.539 -0.347,-1.1172 -0.347,-1.7344 l 0,-7.4296 -2.939,0 0,7.4296 c 0,0.6172 -0.115,1.1954 -0.347,1.7344 -0.231,0.5391 -0.55,1.0117 -0.958,1.4199 -0.407,0.4063 -0.886,0.7262 -1.436,0.9571 -0.551,0.2324 -1.134,0.3476 -1.75,0.3476 -0.616,0 -1.194,-0.1152 -1.734,-0.3476 -0.54,-0.2309 -1.013,-0.5508 -1.419,-0.9571 -0.409,-0.4082 -0.727,-0.8808 -0.958,-1.4199 -0.232,-0.539 -0.347,-1.1172 -0.347,-1.7344 l 0,-7.4296 -2.94,0 0,7.4296 c 0,1.0352 0.193,1.9981 0.579,2.8907 0.384,0.8906 0.913,1.6718 1.584,2.3437 0.672,0.6719 1.458,1.1992 2.362,1.586 0.902,0.3847 1.86,0.5781 2.873,0.5781 1.232,0 2.361,-0.2696 3.385,-0.8106 1.023,-0.539 1.877,-1.2715 2.559,-2.1953 0.682,0.9238 1.54,1.6563 2.575,2.1953 1.036,0.541 2.159,0.8106 3.37,0.8106"
         style="fill:#2c2a29;fill-opacity:1;fill-rule:nonzero;stroke:none"
         id="path18"
         inkscape:connector-curvature="0" /><path
         d="m 337.017,31.8871 c -0.881,-0.8808 -1.321,-1.9375 -1.321,-3.1719 0,-0.6816 0.154,-1.3324 0.462,-1.9472 0.265,0.2636 0.666,0.666 1.205,1.205 0.539,0.5391 1.112,1.1114 1.718,1.7168 0.606,0.6055 1.189,1.1836 1.75,1.7344 0.562,0.5504 0.996,0.9785 1.305,1.2871 -0.837,0.418 -1.724,0.5625 -2.658,0.4297 -0.937,-0.1308 -1.757,-0.5508 -2.461,-1.2539 z m 7.364,-5.3183 2.081,-2.0801 -1.024,-1.0235 c -0.705,-0.705 -1.508,-1.2441 -2.411,-1.6172 -0.903,-0.375 -1.849,-0.5625 -2.839,-0.5625 -0.992,0 -1.938,0.1875 -2.841,0.5625 -0.903,0.3731 -1.706,0.9122 -2.41,1.6172 -0.727,0.7266 -1.267,1.5469 -1.619,2.461 -0.352,0.9121 -0.528,1.8437 -0.528,2.789 0,0.9469 0.176,1.8711 0.528,2.7754 0.352,0.9024 0.892,1.7168 1.619,2.4434 0.726,0.7265 1.545,1.2715 2.459,1.6348 0.914,0.3632 1.844,0.5449 2.792,0.5449 0.946,0 1.875,-0.1817 2.79,-0.5449 0.913,-0.3633 1.733,-0.9083 2.46,-1.6348 l 1.024,-1.0235 -8.224,-8.2226 c 0.837,-0.4199 1.723,-0.5566 2.659,-0.4141 0.936,0.1446 1.755,0.5664 2.46,1.2715 l 1.024,1.0235"
         style="fill:#2c2a29;fill-opacity:1;fill-rule:nonzero;stroke:none"
         id="path20"
         inkscape:connector-curvature="0" /><path
         d="m 354.915,24.291 c 0.616,0 1.194,0.1156 1.734,0.3461 0.539,0.2324 1.012,0.5508 1.42,0.959 0.408,0.4062 0.727,0.8848 0.957,1.4355 0.232,0.5508 0.347,1.1344 0.347,1.75 l 0,4.459 -4.458,0 c -0.616,0 -1.2,-0.1152 -1.75,-0.3476 -0.551,-0.2309 -1.029,-0.5508 -1.436,-0.9571 -0.408,-0.4082 -0.727,-0.8808 -0.958,-1.4199 -0.231,-0.539 -0.347,-1.1172 -0.347,-1.7344 0,-0.6156 0.116,-1.1992 0.347,-1.75 0.231,-0.5507 0.55,-1.0293 0.958,-1.4355 0.407,-0.4082 0.885,-0.7266 1.436,-0.959 0.55,-0.2305 1.134,-0.3461 1.75,-0.3461 z m 7.398,17.8324 0,-13.3418 c 0,-1.0117 -0.194,-1.9707 -0.579,-2.873 -0.384,-0.9023 -0.913,-1.6953 -1.585,-2.377 -0.671,-0.6836 -1.459,-1.2168 -2.361,-1.6015 -0.902,-0.3848 -1.86,-0.5781 -2.873,-0.5781 -1.013,0 -1.97,0.1933 -2.873,0.5781 -0.902,0.3847 -1.695,0.9179 -2.377,1.6015 -0.683,0.6817 -1.217,1.4747 -1.602,2.377 -0.385,0.9023 -0.578,1.8613 -0.578,2.873 0,1.0352 0.193,1.9981 0.578,2.8907 0.385,0.8906 0.919,1.6718 1.602,2.3437 0.682,0.6719 1.475,1.1992 2.377,1.586 0.903,0.3847 1.86,0.5781 2.873,0.5781 l 4.458,0 0,5.9433 2.94,0"
         style="fill:#2c2a29;fill-opacity:1;fill-rule:nonzero;stroke:none"
         id="path22"
         inkscape:connector-curvature="0" /><path
         d="m 385.912,34.7035 c 1.636,-2.4824 0.655,-6.8008 -2.915,-12.8359 l -1.101,0.6523 c 4.105,6.9434 3.87,10.0723 2.948,11.4746 -1.226,1.8672 -4.216,1.5157 -4.244,1.5098 l -0.164,1.2715 c 0.154,0.0195 3.804,0.4629 5.476,-2.0723"
         style="fill:#ffffff;fill-opacity:1;fill-rule:nonzero;stroke:none"
         id="path24"
         inkscape:connector-curvature="0" /><path
         d="m 364.49,34.7035 c -1.635,-2.4824 -0.655,-6.8008 2.914,-12.8359 l 1.103,0.6523 c -4.106,6.9434 -3.869,10.0723 -2.948,11.4746 1.224,1.8672 4.214,1.5157 4.245,1.5098 l 0.164,1.2715 c -0.155,0.0195 -3.805,0.4629 -5.478,-2.0723"
         style="fill:#ffffff;fill-opacity:1;fill-rule:nonzero;stroke:none"
         id="path26"
         inkscape:connector-curvature="0" /><path
         d="m 383.615,23.0395 c 0.154,-0.0469 0.234,-0.211 0.178,-0.3614 0,0 -3.411,-7.8105 -8.313,-8.334 -3.138,-0.3378 -8.461,7.7696 -8.461,7.7696 -0.095,0.1308 -0.057,0.3023 0.084,0.3828 l 1.16,0.6601 c 0.138,0.0782 0.329,0.0352 0.421,-0.0976 0,0 4.316,-7.0469 6.59,-6.8047 3.031,0.3223 6.664,7.0059 6.664,7.0059 0.068,0.1464 0.249,0.2265 0.403,0.1796 l 1.274,-0.4003"
         style="fill:#211c1d;fill-opacity:1;fill-rule:nonzero;stroke:none"
         id="path28"
         inkscape:connector-curvature="0" /><path
         d="m 383.615,23.0395 c 0.154,-0.0469 0.234,-0.211 0.178,-0.3614 0,0 -3.411,-7.8105 -8.313,-8.334 -3.138,-0.3378 -8.461,7.7696 -8.461,7.7696 -0.095,0.1308 -0.057,0.3023 0.084,0.3828 l 1.16,0.6601 c 0.138,0.0782 0.329,0.0352 0.421,-0.0976 0,0 4.316,-7.0469 6.59,-6.8047 3.031,0.3223 6.664,7.0059 6.664,7.0059 0.068,0.1464 0.249,0.2265 0.403,0.1796 l 1.274,-0.4003"
         style="fill:#2c2a29;fill-opacity:1;fill-rule:nonzero;stroke:none"
         id="path30"
         inkscape:connector-curvature="0" /><path
         d="m 374.426,4.66406 c -8.994,-8.99609 -12.405,3.74375 -12.743,3.91992 l 0.59,1.13711 c 2.105,-1.09023 2.762,-11.17812 11.376,-4.03906 1.372,1.13711 1.743,3.40195 0.976,6.88277 l 1.251,0.275 c 0.883,-4.00972 0.193,-6.53277 -1.45,-8.17574"
         style="fill:#2c2a29;fill-opacity:1;fill-rule:nonzero;stroke:none"
         id="path32"
         inkscape:connector-curvature="0" /><path
         d="m 363.194,9.27188 -1.72,-1.10391 -0.691,1.08008 1.721,1.10395 0.69,-1.08012"
         style="fill:#2c2a29;fill-opacity:1;fill-rule:nonzero;stroke:none"
         id="path34"
         inkscape:connector-curvature="0" /><path
         d="m 359.611,9.72109 c -1.922,0 -3.486,1.56411 -3.486,3.48591 0,1.9243 1.564,3.4868 3.486,3.4868 1.922,0 3.488,-1.5625 3.488,-3.4868 0,-1.9218 -1.566,-3.48591 -3.488,-3.48591 z m 0,7.95311 c -2.462,0 -4.465,-2.0039 -4.465,-4.4672 0,-2.4609 2.003,-4.46481 4.465,-4.46481 2.463,0 4.465,2.00391 4.465,4.46481 0,2.4633 -2.002,4.4672 -4.465,4.4672"
         style="fill:#2c2a29;fill-opacity:1;fill-rule:nonzero;stroke:none"
         id="path36"
         inkscape:connector-curvature="0" /><path
         d="m 359.611,10.7129 c -1.376,0 -2.494,1.1191 -2.494,2.4941 0,1.3754 1.118,2.4946 2.494,2.4946 1.376,0 2.495,-1.1192 2.495,-2.4946 0,-1.375 -1.119,-2.4941 -2.495,-2.4941 z m 0,6.0414 c -1.954,0 -3.547,-1.5922 -3.547,-3.5473 0,-1.955 1.593,-3.54489 3.547,-3.54489 1.954,0 3.546,1.58989 3.546,3.54489 0,1.9551 -1.592,3.5473 -3.546,3.5473"
         style="fill:#ffffff;fill-opacity:1;fill-rule:nonzero;stroke:none"
         id="path38"
         inkscape:connector-curvature="0" /><path
         d="m 359.611,11.2871 c -1.057,0 -1.92,0.8617 -1.92,1.9199 0,1.059 0.863,1.9203 1.92,1.9203 1.059,0 1.921,-0.8613 1.921,-1.9203 0,-1.0582 -0.862,-1.9199 -1.921,-1.9199 z m 0,5.0957 c -1.751,0 -3.174,-1.4234 -3.174,-3.1758 0,-1.75 1.423,-3.1742 3.174,-3.1742 1.752,0 3.176,1.4242 3.176,3.1742 0,1.7524 -1.424,3.1758 -3.176,3.1758"
         style="fill:#2c2a29;fill-opacity:1;fill-rule:nonzero;stroke:none"
         id="path40"
         inkscape:connector-curvature="0" /><path
         d="m 357.685,13.225 c 0,-1.0648 0.862,-1.9281 1.926,-1.9281 1.066,0 1.928,0.8633 1.928,1.9281 0,1.066 -0.862,1.9297 -1.928,1.9297 -1.064,0 -1.926,-0.8637 -1.926,-1.9297"
         style="fill:#ffffff;fill-opacity:1;fill-rule:nonzero;stroke:none"
         id="path42"
         inkscape:connector-curvature="0" /><path
         d="m 374.516,15.0121 c -0.568,0 -0.925,-0.4512 -0.789,-1.0058 0,0 0.53,-2.1583 1.485,-2.1583 0.955,0 1.483,2.1583 1.483,2.1583 0.137,0.5546 -0.218,1.0058 -0.789,1.0058 l -1.39,0"
         style="fill:#2c2a29;fill-opacity:1;fill-rule:nonzero;stroke:none"
         id="path44"
         inkscape:connector-curvature="0" /><path
         d="m 377.829,35.4984 c 0,-0.5722 0.453,-0.9257 1.006,-0.791 0,0 2.157,0.5293 2.157,1.4844 0,0.9551 -2.157,1.4844 -2.157,1.4844 -0.553,0.1367 -1.006,-0.2188 -1.006,-0.7891 l 0,-1.3887"
         style="fill:#2c2a29;fill-opacity:1;fill-rule:nonzero;stroke:none"
         id="path46"
         inkscape:connector-curvature="0" /><path
         d="m 372.588,35.5863 c 0,-0.5703 -0.453,-0.9242 -1.006,-0.789 0,0 -2.156,0.5273 -2.156,1.4824 0,0.957 2.156,1.4844 2.156,1.4844 0.553,0.1367 1.006,-0.2188 1.006,-0.7895 l 0,-1.3883"
         style="fill:#2c2a29;fill-opacity:1;fill-rule:nonzero;stroke:none"
         id="path48"
         inkscape:connector-curvature="0" /></g></g></svg>